<?xml version="1.0" encoding="UTF-8" standalone="no"?>
<!-- Created with Inkscape (http://www.inkscape.org/) -->

<svg
   width="120"
   height="48"
   viewBox="0 0 120 48"
   version="1.1"
   id="svg5"
   xmlns="http://www.w3.org/2000/svg"
   xmlns:svg="http://www.w3.org/2000/svg">
  <defs
     id="defs2" />
  <g
     id="layer1">
    <path
       style="fill:#000000;stroke:#000000;stroke-width:1.41245px;stroke-linecap:butt;stroke-linejoin:miter;stroke-opacity:1"
       d="m 118.95551,20.426174 c -7.74437,-1.84801 -11.54397,-5.957482 -11.54397,-5.957482 -8.27787,-5.8076682 -18.407187,6.245036 -18.407187,6.245036 0,0 -13.431127,6.411085 -19.121713,2.631052 C 64.192052,19.564746 74.417505,4.6639752 46.438064,1.7155603 L 24.834421,8.0855139 C 34.13577,13.522024 62.227128,0.1031918 44.462325,25.525557 v 0 C 18.803889,42.32676 1.013803,37.965688 1.013803,37.965688 c 0,0 7.9625663,0.804645 21.996588,5.835685 13.949309,5.000672 36.264149,-0.301166 36.264149,-0.301166 0,0 10.159895,-3.342855 21.516477,-11.78013 11.356582,-8.437276 38.164493,-11.293903 38.164493,-11.293903 z"
       id="path857" />
    <path
       style="fill:#ffffff;stroke:#000000;stroke-width:1.41245px;stroke-linecap:butt;stroke-linejoin:miter;stroke-opacity:1"
       d="m 25.259704,44.361614 v 0 l 6.749855,1.48321 9.515521,0.573956 c 13.261668,-0.222492 21.370737,-3.952182 21.370737,-3.952182 3.154401,-1.147656 8.345127,-4.308488 16.766622,-9.918244 -24.316553,5.938748 -22.624695,5.417009 -29.912815,6.248377 -30.945735,3.530029 -24.48992,5.564883 -24.48992,5.564883 z"
       id="path2924" />
    <path
       style="fill:#800000;stroke-width:1.41245"
       id="path8175"
       d="m 102.69213,16.028919 c 0.0769,-0.168882 0.19289,-0.296633 0.3177,-0.39783 -0.0944,0.07939 -0.19977,0.139297 -0.28337,0.238168 -0.0261,0.03092 0.0682,-0.02028 0.10296,-0.02481 0.15321,-0.01994 0.30484,0.01774 0.45423,0.05779 0.11052,0.03532 0.20001,0.06033 0.23942,0.214465 0.0159,0.122616 0.0128,0.249432 0.006,0.373161 -0.01,0.08677 -0.0257,0.161308 -0.0781,0.219436 -0.0198,0.02191 -0.0865,0.07379 -0.0648,0.05554 0.29222,-0.245355 0.34499,-0.251626 0.12514,-0.15933 -0.13332,0.03732 -0.27099,0.06805 -0.40752,0.04628 -0.0478,-0.0077 -0.0827,-0.02249 -0.1292,-0.03909 -0.0565,-0.02693 -0.24154,-0.122109 -0.26236,-0.203964 -0.004,-0.0121 10e-4,-0.02554 10e-4,-0.03832 0.0231,-0.106656 0.0619,-0.193194 0.13637,-0.244442 -0.64971,0.42638 -0.35454,0.272499 -0.18282,0.200203 0.0831,-0.04139 0.15249,-0.02692 0.23736,-0.0038 0.0833,0.0298 0.14216,0.04393 0.17308,0.159445 0.0128,0.07751 0.02,0.158185 -10e-4,0.233581 -0.006,0.0067 -0.011,0.01537 -0.0181,0.02034 -0.009,0.0061 -0.0346,0.01884 -0.0266,0.01226 0.11309,-0.09223 0.22941,-0.177508 0.34254,-0.269806 0.0151,-0.01226 -0.037,0.02249 -0.077,0.01951 -0.0686,-0.05423 -0.12576,-0.135355 -0.16165,-0.230507 -0.0395,-0.02003 0.0232,-0.03951 0.0148,-0.03248 -0.11833,0.0992 -0.24056,0.18998 -0.35925,0.288466 -0.006,0.0047 0.0129,-0.0056 0.0196,-0.0067 0.01,-0.0015 0.0194,-7.18e-4 0.029,-0.0011 0.22389,-0.01521 0.37504,-0.202664 0.57434,-0.357709 0.005,-0.0092 0.0129,-0.01648 0.0151,-0.02749 0.0181,-0.0906 -0.0865,-0.155928 -0.13037,-0.189431 -0.0914,-0.07346 -0.19397,-0.119346 -0.2957,-0.159869 -0.1911,-0.04945 -0.46902,0.104906 -0.50411,0.374962 -0.009,0.08203 -0.007,0.164983 -0.006,0.247528 -0.002,0.02752 -0.002,0.06281 -0.0179,0.08446 -0.007,0.01 -0.0388,0.02031 -0.0298,0.01325 0.12054,-0.09549 0.24305,-0.186144 0.36459,-0.279215 -10e-4,0.0015 -0.005,0.01 -0.009,0.0064 -0.0205,-0.0211 -0.0355,-0.04945 -0.0571,-0.06999 -0.0233,-0.01586 -0.0612,-0.0452 -0.0884,-0.02497 -0.39407,0.293322 -0.32889,0.122797 -0.40459,0.342598 -0.0282,0.08401 -0.0126,0.154047 0.0316,0.218891 0.0593,0.06257 0.13568,0.07786 0.20821,0.093 0.0841,0.01745 0.16453,0.0034 0.24552,-0.02682 0.11541,-0.05021 0.23613,-0.04427 0.35572,-0.04111 0.10503,0.0098 0.20899,0.009 0.31107,-0.02757 0.16147,-0.07935 0.30602,-0.223273 0.44815,-0.342547 0.0198,-0.01656 0.0277,-0.06496 0.0312,-0.09248 -0.0134,-0.101914 -0.0941,-0.157956 -0.15421,-0.208533 -0.0508,-0.04374 -0.10321,-0.08347 -0.15561,-0.123533 -0.11028,-0.06257 -0.23015,-0.05594 -0.34602,-0.03258 -0.0469,0.01603 -0.0994,0.0236 -0.14219,0.05706 -0.20313,0.158806 -0.355,0.157318 -0.42132,0.388754 -0.0127,0.06432 -0.011,0.131366 -0.01,0.197273 0.0154,0.123467 0.13304,0.17573 0.20779,0.220206 0.0937,0.05554 0.19329,0.08455 0.29551,0.07673 0.0686,-0.0072 0.12788,-0.04917 0.18745,-0.09102 0.13157,-0.101897 0.26394,-0.20192 0.3947,-0.305698 0.0422,-0.03352 0.06,-0.09823 0.0687,-0.158561 0.005,-0.09781 -0.0179,-0.181771 -0.0598,-0.260073 -0.0605,-0.08787 -0.14061,-0.145021 -0.22173,-0.191445 -0.0965,-0.04052 -0.19825,-0.06376 -0.29951,-0.05859 -0.2055,0.02504 -0.3164,0.192862 -0.52038,0.340391 -0.1148,0.08299 0.22558,-0.175452 0.33837,-0.263178 -0.17103,0.118692 -0.33285,0.260527 -0.50257,0.38185 -0.11296,0.08075 0.22357,-0.167711 0.33163,-0.259743 0.0144,-0.01227 -0.0328,0.01276 -0.0493,0.01926 -0.0992,0.01671 -0.19948,0.01128 -0.29841,0.03231 -0.30684,0.08997 -0.42392,0.167509 -0.43168,0.470133 -2.4e-4,0.074 -0.0122,0.134914 0.0245,0.195135 0,0 0.37279,-0.302866 0.37279,-0.302866 v 0 c -0.0283,-0.03321 -0.006,-0.108651 -0.01,-0.151905 0.002,-0.03101 0.002,-0.07248 0.0188,-0.09838 0.004,-0.0064 0.0204,-0.0189 0.0149,-0.01488 -0.58077,0.435139 -0.46171,0.347795 -0.33307,0.253629 0.0976,-0.03802 0.19992,-0.03187 0.3005,-0.03712 0.21738,-0.02576 -0.0304,0.01357 0.46238,-0.313054 0.11614,-0.07698 -0.22494,0.17238 -0.33707,0.259389 -0.10625,0.08249 0.20828,-0.146133 0.1004,-0.07086 0.38242,-0.293897 0.64991,-0.498687 0.0578,-0.04641 -0.009,0.0065 0.017,-0.01374 0.0259,-0.01939 0.0247,-0.01537 0.0294,-0.01423 0.0561,-0.02123 0.011,-0.0028 0.0212,-0.0056 0.032,-0.0083 0.097,-0.02085 0.19504,7.26e-4 0.28934,0.03415 0.075,0.03835 0.14901,0.08953 0.20616,0.166518 0.0351,0.06371 0.0548,0.133492 0.0406,0.213601 -0.0135,0.04263 -0.03,0.07249 -0.0584,0.09975 -0.007,0.007 -0.0307,0.02584 -0.0228,0.01984 0.11614,-0.08826 0.23171,-0.177767 0.34756,-0.266651 -0.0594,0.0381 -0.11308,0.09071 -0.1789,0.108798 -0.0982,0.01928 -0.1952,0.0046 -0.28727,-0.04829 -0.0538,-0.03141 -0.12967,-0.06425 -0.16854,-0.128144 -0.006,-0.0103 -0.006,-0.02913 -0.007,-0.04113 -5.1e-4,-0.05794 -10e-4,-0.118119 0.0183,-0.171112 0.0811,-0.155209 0.34257,-0.27977 -0.31037,0.21199 -0.0174,0.01308 0.1305,-0.102175 0.13871,-0.07498 0.10723,-0.03177 0.21663,-0.04402 0.32187,0.0083 0.0543,0.03468 0.10602,0.07678 0.15811,0.116958 0.0254,0.02012 0.12984,0.09653 0.1215,0.144007 -0.0149,0.03302 -0.0534,0.06934 -0.04,0.05935 0.62045,-0.464182 0.42906,-0.32053 0.29515,-0.228895 -0.097,0.05874 -0.20328,0.05804 -0.30772,0.05034 -0.11992,-0.0038 -0.24187,-0.02113 -0.35882,0.0234 -0.0781,0.02878 -0.1525,0.05938 -0.23511,0.04597 -0.0647,-0.01112 -0.12947,-0.02422 -0.18822,-0.06425 -0.0399,-0.05346 -0.0368,-0.0808 -0.005,-0.146443 0.12404,-0.137335 0.0123,-0.01128 -0.33532,0.248049 -0.006,0.0046 0.011,-0.0121 0.0166,-0.01715 0.0122,-0.01 0.0176,-0.01259 0.0315,-0.0092 0.006,0.0014 0.011,0.0051 0.0165,0.0075 0.0354,0.02424 0.051,0.06996 0.0828,0.09949 0.21403,-0.156435 0.41546,-0.14435 0.41779,-0.434499 -4.4e-4,-0.07712 -0.002,-0.15619 0.0133,-0.231073 0.0666,-0.159035 0.43032,-0.340541 -0.32926,0.226955 -0.007,0.0056 0.0129,-0.01521 0.0206,-0.01987 0.0245,-0.01472 0.039,-0.0093 0.0656,-0.0078 0.10028,0.03171 0.2016,0.07521 0.2896,0.147767 0.01,0.0074 0.1004,0.07439 0.0981,0.08875 -0.002,0.01406 -0.0286,0.0085 -0.0259,0.02559 0.67845,-0.516527 0.35159,-0.211382 0.17849,-0.198512 -0.009,0.0011 -0.0177,0.0039 -0.0265,0.0033 -0.009,-6.33e-4 -0.0177,-0.01243 -0.0252,-0.007 -0.1399,0.09877 -0.4532,0.145135 -0.37738,0.388978 0.0456,0.105446 0.11224,0.189163 0.17972,0.269587 0.0282,0.01704 0.0638,0.03352 0.0947,0.01145 0.0683,-0.04888 0.37011,-0.163156 0.43334,-0.371997 0.0122,-0.08868 0.006,-0.178775 -0.0122,-0.265335 -0.0411,-0.136811 -0.0963,-0.167357 -0.1998,-0.204433 -0.0902,-0.02767 -0.1545,-0.06281 -0.24614,-0.02335 -0.0338,0.01259 -0.0661,0.02947 -0.0994,0.0433 -0.021,0.0087 -0.045,0.0044 -0.0643,0.01843 -0.1344,0.09712 -0.26554,0.202133 -0.39832,0.303197 -0.0679,0.07681 -0.10699,0.182254 -0.11565,0.301276 0.004,0.02182 0.004,0.04527 0.01,0.06546 0.0348,0.09989 0.21072,0.186697 0.28158,0.230669 0.0512,0.02101 0.0828,0.03698 0.1361,0.04687 0.14187,0.02633 0.28509,-0.0067 0.42467,-0.03886 0.28595,-0.09895 0.14521,-0.03523 0.59477,-0.387258 0.0884,-0.06922 0.12102,-0.193151 0.13072,-0.32154 0.006,-0.131857 0.0148,-0.269095 -0.01,-0.398254 -0.0526,-0.174507 -0.14032,-0.21854 -0.27369,-0.254125 -0.1528,-0.03918 -0.306,-0.07755 -0.46244,-0.0722 -0.0351,0.0012 -0.0731,-0.0074 -0.10528,0.01177 -0.15284,0.09125 -0.29551,0.210424 -0.44326,0.315636 -0.12557,0.114947 -0.23801,0.253965 -0.32126,0.426118 0,0 0.39765,-0.233989 0.39765,-0.233989 z" />
    <path
       style="fill:#ffffff;stroke:#000000;stroke-width:1.41245px;stroke-linecap:butt;stroke-linejoin:miter;stroke-opacity:1"
       d="M 65.343542,20.710583 C 67.461641,13.890814 64.495599,9.4869837 52.133448,7.9794729 41.454474,6.6772182 10.070165,14.642172 10.070165,14.642172 c 0,0 20.257703,5.699363 29.054814,4.120305 6.348543,-1.139547 7.858534,-0.637873 5.337346,6.76308 v 0 c 8.9749,2.676441 15.393615,-0.07982 20.881217,-4.814974 z"
       id="path39766" />
    <path
       style="fill:#ffffff;stroke-width:1.41245"
       id="path57379"
       d="m 105.07729,19.446494 c -0.58078,-0.373413 -1.16148,-0.744686 -1.77438,-1.013576 -0.70654,-0.261398 -1.43871,-0.369549 -2.16655,-0.462388 -0.30533,-0.02433 -0.61657,-0.01374 -0.90795,0.12 -1.161422,0.544764 -1.843299,1.430348 -2.743486,2.275641 -0.462933,0.43881 0.246393,0.887961 0.506217,1.063172 0.530994,0.342213 1.113092,0.485953 1.672742,0.717783 0.481817,0.24975 0.983347,0.22811 1.487837,0.182672 0.24805,-0.02919 0.49664,-0.04772 0.74546,-0.05949 0,0 1.97757,-1.944236 1.97757,-1.944236 v 0 c -0.25257,0.0183 -0.50538,0.0314 -0.75763,0.05702 -0.48573,0.06116 -0.98383,0.159232 -1.45554,-0.06145 -0.54657,-0.226664 -1.10571,-0.397262 -1.63623,-0.686902 -0.157236,-0.104056 -0.304276,-0.230126 -0.45827,-0.337565 -0.0085,-0.0062 0.0085,0.03627 0.01781,0.0328 0.071,-0.02517 0.106013,-0.156827 0.180088,-0.170118 0.786152,-0.758689 2.069222,-2.302826 -1.479234,0.966615 0.285712,-0.150565 0.561798,-0.283643 0.878569,-0.267021 0.717816,0.06077 1.441127,0.143238 2.136117,0.405089 0.60248,0.226812 1.17541,0.564704 1.72118,0.974749 0,0 2.05565,-1.792784 2.05565,-1.792784 z" />
    <path
       style="fill:#ffffff;stroke-width:1.41245"
       id="path57550"
       d="m 77.028254,24.96408 c 0.01391,0.460808 0.0035,0.922068 0.0023,1.383053 -0.0174,0.503446 0.06067,0.879669 0.245231,1.31457 0.198339,0.382457 0.410323,0.760938 0.656452,1.091175 0.309487,0.388511 0.600654,0.802646 0.914649,1.184544 0.221025,0.283901 0.441114,0.572825 0.695157,0.803612 0.112601,0.101734 0.05646,0.05223 0.168363,0.148602 0,0 1.458781,-1.264385 1.458781,-1.264385 v 0 c -0.112015,-0.08479 -0.0548,-0.038 -0.171019,-0.141701 -0.259696,-0.199521 -0.473466,-0.489654 -0.693781,-0.757772 -0.313411,-0.373776 -0.606891,-0.777114 -0.901956,-1.176549 -0.228557,-0.325485 -0.453493,-0.66236 -0.63845,-1.034537 -0.153438,-0.382956 -0.215807,-0.779179 -0.197209,-1.215892 0.0012,-0.463744 -0.0066,-0.927827 0.0096,-1.391262 0,0 -1.548245,1.056547 -1.548245,1.056547 z" />
  </g>
</svg>
