<?xml version="1.0" encoding="UTF-8" standalone="no"?>
<!-- Created with Inkscape (http://www.inkscape.org/) -->

<svg
   width="120"
   height="120"
   viewBox="0 0 120 120"
   version="1.1"
   id="svg5"
   sodipodi:docname="logo.svg"
   inkscape:version="1.1.2 (0a00cf5339, 2022-02-04)"
   xmlns:inkscape="http://www.inkscape.org/namespaces/inkscape"
   xmlns:sodipodi="http://sodipodi.sourceforge.net/DTD/sodipodi-0.dtd"
   xmlns="http://www.w3.org/2000/svg"
   xmlns:svg="http://www.w3.org/2000/svg">
  <sodipodi:namedview
     id="namedview13"
     pagecolor="#ffffff"
     bordercolor="#666666"
     borderopacity="1.0"
     inkscape:pageshadow="2"
     inkscape:pageopacity="0.0"
     inkscape:pagecheckerboard="0"
     showgrid="false"
     inkscape:zoom="3.7123106"
     inkscape:cx="63.976328"
     inkscape:cy="68.82506"
     inkscape:window-width="2560"
     inkscape:window-height="1381"
     inkscape:window-x="0"
     inkscape:window-y="270"
     inkscape:window-maximized="1"
     inkscape:current-layer="layer1" />
  <defs
     id="defs2" />
  <g
     id="layer1">
    <path
       style="fill:#000000;stroke:#000000;stroke-width:1px;stroke-linecap:butt;stroke-linejoin:miter;stroke-opacity:1"
       d="m 108.19601,51.857178 c -6.34812,-1.130057 -9.462681,-3.642997 -9.462681,-3.642997 -6.785436,-3.551386 -15.088519,3.818836 -15.088519,3.818836 0,0 -11.009603,3.920375 -15.674223,1.608887 -4.664621,-2.311489 3.717266,-11.423301 -19.217708,-13.226255 l -17.708681,3.895222 c 7.624391,3.324423 30.651104,-4.881185 16.089152,10.664577 v 0 c -21.032428,10.273926 -35.615105,7.607133 -35.615105,7.607133 0,0 6.52698,0.49204 18.030781,3.568518 11.434361,3.057908 29.726016,-0.184163 29.726016,-0.184163 0,0 8.328148,-2.044154 17.63723,-7.203543 9.309082,-5.159389 31.283738,-6.906215 31.283738,-6.906215 z"
       id="path857" />
    <path
       style="fill:#ffffff;stroke:#000000;stroke-width:1px;stroke-linecap:butt;stroke-linejoin:miter;stroke-opacity:1"
       d="m 31.392806,66.493686 v 0 l 5.532911,0.906982 7.799949,0.350974 C 55.596363,67.615588 62.243432,65.334885 62.243432,65.334885 64.82912,64.633094 69.084,62.700247 75.987168,59.269884 56.054693,62.901425 57.441522,62.582382 51.467391,63.090763 26.100922,65.249374 31.392806,66.493686 31.392806,66.493686 Z"
       id="path2924"
       sodipodi:nodetypes="ccccccsc" />
    <path
       style="fill:#800000"
       id="path8175"
       d="m 94.864791,49.168259 c 0.06302,-0.103271 0.158113,-0.181391 0.260423,-0.243273 -0.07743,0.04855 -0.163752,0.08518 -0.232282,0.14564 -0.02143,0.01891 0.05594,-0.0124 0.08439,-0.01517 0.125581,-0.01219 0.249875,0.01085 0.372328,0.03534 0.09056,0.0216 0.163954,0.03689 0.196257,0.131145 0.01303,0.07498 0.01052,0.152528 0.0053,0.228188 -0.0077,0.05306 -0.02108,0.09864 -0.06405,0.134185 -0.0162,0.0134 -0.07094,0.04512 -0.05313,0.03396 0.239546,-0.150034 0.282795,-0.153869 0.102579,-0.09743 -0.10928,0.02282 -0.222127,0.04161 -0.334041,0.0283 -0.03921,-0.0047 -0.06776,-0.01375 -0.105901,-0.0239 -0.04627,-0.01647 -0.198001,-0.07467 -0.215059,-0.124724 -0.0025,-0.0074 9.51e-4,-0.01562 0.0014,-0.02343 0.01887,-0.06522 0.05066,-0.118138 0.111777,-0.149476 -0.53257,0.260731 -0.290624,0.166633 -0.149863,0.122424 0.06807,-0.02531 0.125,-0.01646 0.194569,-0.0023 0.06834,0.01822 0.116535,0.02686 0.141871,0.0975 0.01048,0.0474 0.01636,0.09673 -0.0011,0.142835 -0.0049,0.0041 -0.0091,0.0094 -0.01481,0.01244 -0.0068,0.0037 -0.02841,0.01152 -0.02183,0.0075 0.09275,-0.0564 0.188056,-0.108546 0.280787,-0.164986 0.01237,-0.0075 -0.03027,0.01375 -0.06307,0.01193 -0.05616,-0.03316 -0.103075,-0.08277 -0.132499,-0.140955 -0.03244,-0.01225 0.01901,-0.02416 0.01214,-0.01986 -0.09702,0.06066 -0.197183,0.116173 -0.294473,0.176397 -0.0047,0.0029 0.01059,-0.0034 0.01608,-0.0041 0.0079,-9.34e-4 0.01587,-4.39e-4 0.02381,-6.59e-4 0.183519,-0.0093 0.307416,-0.123929 0.470783,-0.218739 0.0041,-0.0056 0.01062,-0.01008 0.01242,-0.01681 0.01481,-0.0554 -0.07091,-0.09535 -0.106859,-0.115837 -0.07486,-0.04492 -0.158998,-0.07298 -0.242391,-0.09776 -0.156642,-0.03024 -0.38446,0.06415 -0.413219,0.229289 -0.0066,0.05016 -0.0056,0.100887 -0.0055,0.151363 -0.0018,0.01683 -0.0018,0.03841 -0.0147,0.05165 -0.006,0.0061 -0.03178,0.01242 -0.02441,0.0081 0.09876,-0.05839 0.199235,-0.113827 0.298852,-0.17074 -9.06e-4,8.93e-4 -0.0043,0.0061 -0.0072,0.0039 -0.01675,-0.0129 -0.02907,-0.03024 -0.04682,-0.0428 -0.01909,-0.0097 -0.05025,-0.02764 -0.07252,-0.01527 -0.323019,0.179366 -0.269591,0.07509 -0.331644,0.209498 -0.02312,0.05137 -0.0103,0.0942 0.02589,0.133852 0.04864,0.03826 0.111229,0.04761 0.170677,0.05687 0.06888,0.01067 0.134872,0.0021 0.201261,-0.0164 0.09456,-0.0307 0.193548,-0.02707 0.291575,-0.02514 0.08608,0.006 0.171312,0.0055 0.25499,-0.01686 0.13236,-0.04852 0.250854,-0.136531 0.367355,-0.209467 0.01619,-0.01013 0.0227,-0.03972 0.02561,-0.05655 -0.01098,-0.06232 -0.07707,-0.09659 -0.126411,-0.127518 -0.04157,-0.02675 -0.08463,-0.05104 -0.127555,-0.07554 -0.0904,-0.03826 -0.188658,-0.03421 -0.283642,-0.01992 -0.03845,0.0098 -0.08146,0.01443 -0.11655,0.03489 -0.166508,0.09711 -0.290995,0.0962 -0.345358,0.237723 -0.01044,0.03933 -0.0087,0.08033 -0.0081,0.120632 0.01265,0.0755 0.109052,0.107459 0.170337,0.134656 0.07679,0.03396 0.158436,0.0517 0.242224,0.04692 0.0562,-0.0044 0.10482,-0.03007 0.153652,-0.05566 0.107846,-0.06231 0.216363,-0.123474 0.323537,-0.186934 0.03461,-0.0205 0.0492,-0.06007 0.05633,-0.09696 0.0042,-0.05981 -0.01473,-0.111153 -0.04903,-0.159035 -0.04965,-0.05373 -0.115258,-0.08868 -0.181754,-0.117068 -0.07911,-0.02478 -0.162499,-0.03899 -0.245514,-0.03583 -0.168447,0.01531 -0.259346,0.117935 -0.426561,0.208149 -0.09407,0.05075 0.184913,-0.107289 0.277369,-0.160933 -0.140193,0.07258 -0.272834,0.159312 -0.411958,0.233501 -0.0926,0.04938 0.183258,-0.102555 0.271839,-0.158833 0.01183,-0.0075 -0.02691,0.0078 -0.04037,0.01178 -0.08134,0.01022 -0.163505,0.0069 -0.244605,0.01976 -0.251527,0.05502 -0.347492,0.102432 -0.353857,0.287486 -2e-4,0.04525 -0.01003,0.0825 0.02014,0.119325 0,0 0.305588,-0.185202 0.305588,-0.185202 v 0 c -0.02316,-0.02031 -0.005,-0.06644 -0.0085,-0.09289 0.0021,-0.01896 0.0024,-0.04432 0.01542,-0.06016 0.0032,-0.0039 0.01667,-0.01156 0.01223,-0.0091 -0.47606,0.266087 -0.378479,0.212676 -0.273029,0.155094 0.07997,-0.02325 0.163878,-0.01949 0.246323,-0.0227 0.178195,-0.01575 -0.02485,0.0083 0.379021,-0.191432 0.09519,-0.04707 -0.184389,0.10541 -0.276295,0.158616 -0.08713,0.05044 0.17073,-0.08936 0.08229,-0.04333 0.31347,-0.179718 0.532725,-0.304947 0.04738,-0.02838 -0.007,0.004 0.01388,-0.0084 0.02122,-0.01186 0.0202,-0.0094 0.02407,-0.0087 0.04601,-0.01298 0.0087,-0.0017 0.01745,-0.0034 0.02617,-0.0051 0.07948,-0.01275 0.159869,4.44e-4 0.237165,0.02088 0.0615,0.02345 0.122146,0.05475 0.168993,0.101826 0.02883,0.03896 0.0449,0.08163 0.03331,0.130617 -0.01111,0.02607 -0.02459,0.04433 -0.0479,0.061 -0.0061,0.0043 -0.02523,0.0158 -0.01875,0.01213 0.09518,-0.05397 0.189932,-0.108704 0.284898,-0.163057 -0.04869,0.0233 -0.09272,0.05547 -0.14665,0.06653 -0.0805,0.01179 -0.160013,0.0028 -0.235483,-0.02953 -0.04407,-0.01921 -0.106289,-0.03929 -0.138143,-0.07836 -0.0052,-0.0063 -0.005,-0.01781 -0.0056,-0.02515 -4.26e-4,-0.03543 -0.0015,-0.07223 0.01501,-0.104635 0.06649,-0.09491 0.280801,-0.171079 -0.254411,0.129632 -0.01427,0.008 0.106963,-0.06248 0.113698,-0.04585 0.08793,-0.01943 0.177566,-0.02692 0.263842,0.0051 0.04447,0.02121 0.08693,0.04695 0.129599,0.07152 0.02085,0.0123 0.106429,0.05903 0.09965,0.08806 -0.01225,0.02019 -0.04378,0.0424 -0.03284,0.03629 0.508583,-0.283847 0.351694,-0.196004 0.241939,-0.139969 -0.07945,0.03592 -0.166631,0.03549 -0.252239,0.03078 -0.09828,-0.0023 -0.198272,-0.01292 -0.294131,0.01431 -0.06396,0.0176 -0.125015,0.03631 -0.192718,0.02811 -0.05303,-0.0068 -0.106138,-0.01481 -0.15429,-0.03929 -0.03271,-0.03269 -0.03024,-0.04941 -0.0039,-0.08955 0.101675,-0.08398 0.01014,-0.0069 -0.274861,0.151682 -0.005,0.0028 0.0088,-0.0074 0.01365,-0.01049 0.0097,-0.0061 0.01439,-0.0077 0.02577,-0.0056 0.0047,8.62e-4 0.009,0.0031 0.01354,0.0046 0.02896,0.01482 0.04178,0.04278 0.06795,0.06084 0.175442,-0.09566 0.340547,-0.08827 0.342462,-0.265696 -3.66e-4,-0.04716 -0.0021,-0.09551 0.01087,-0.141301 0.05462,-0.09725 0.352721,-0.208241 -0.269902,0.138783 -0.0061,0.0034 0.01056,-0.0093 0.01689,-0.01215 0.02011,-0.009 0.03201,-0.0057 0.05383,-0.0048 0.08217,0.01939 0.165247,0.04599 0.237384,0.09036 0.008,0.0045 0.08231,0.04549 0.08042,0.05427 -0.0019,0.0086 -0.02337,0.0052 -0.02124,0.01565 0.556133,-0.315856 0.288204,-0.12926 0.146316,-0.12139 -0.0073,6.53e-4 -0.01448,0.0024 -0.02175,0.002 -0.007,-3.87e-4 -0.01448,-0.0076 -0.02072,-0.0043 -0.114681,0.0604 -0.371495,0.08875 -0.309343,0.23786 0.03743,0.06448 0.09199,0.115673 0.147321,0.164852 0.02312,0.01042 0.05227,0.0205 0.07764,0.007 0.05597,-0.02989 0.30338,-0.09977 0.355208,-0.227476 0.01,-0.05423 0.0055,-0.109321 -0.01002,-0.162252 -0.03369,-0.08366 -0.07885,-0.102339 -0.163779,-0.125011 -0.07392,-0.01692 -0.126639,-0.03841 -0.201755,-0.01428 -0.02772,0.0077 -0.05415,0.01802 -0.08154,0.02648 -0.01717,0.0053 -0.03691,0.0027 -0.05273,0.01127 -0.110172,0.05939 -0.217676,0.123604 -0.326514,0.185405 -0.0557,0.04697 -0.08775,0.111448 -0.09482,0.18423 0.0028,0.01334 0.0027,0.02768 0.0085,0.04003 0.02853,0.06108 0.17273,0.114165 0.230821,0.141054 0.04198,0.01285 0.06785,0.02261 0.111557,0.02866 0.116291,0.0161 0.233695,-0.0041 0.348098,-0.02376 0.234401,-0.06051 0.119037,-0.02154 0.487541,-0.236808 0.07246,-0.04233 0.09918,-0.118112 0.107157,-0.196622 0.0052,-0.08063 0.01208,-0.164551 -0.0083,-0.243532 -0.04307,-0.106711 -0.115024,-0.133637 -0.22434,-0.155397 -0.125257,-0.02396 -0.250838,-0.04742 -0.379073,-0.04415 -0.02885,7.36e-4 -0.05991,-0.0045 -0.08628,0.0072 -0.125279,0.0558 -0.242228,0.128674 -0.363342,0.193011 -0.102926,0.07029 -0.195097,0.1553 -0.263339,0.260571 0,0 0.32596,-0.143084 0.32596,-0.143084 z" />
    <text
       xml:space="preserve"
       style="font-style:normal;font-weight:normal;font-size:33.3677px;line-height:1.25;font-family:sans-serif;fill:#000000;fill-opacity:1;stroke:none;stroke-width:0.834191"
       x="6.7399745"
       y="95.253998"
       id="text21161"
       transform="scale(0.83419137,1.1987657)"><tspan
         id="tspan21159"
         x="6.7399745"
         y="95.253998"
         style="stroke-width:0.834191;font-style:italic">Ludo Air</tspan></text>
    <path
       style="fill:#ffffff;stroke:#000000;stroke-width:1px;stroke-linecap:butt;stroke-linejoin:miter;stroke-opacity:1"
       d="M 64.249852,52.031094 C 65.986075,47.860809 63.554786,45.167869 53.421431,44.246027 44.66779,43.4497 18.941818,48.320264 18.941818,48.320264 c 0,0 16.605403,3.485157 23.816466,2.519564 5.203952,-0.696832 6.441704,-0.390059 4.375066,4.13562 v 0 c 7.356798,1.636642 12.61827,-0.04881 17.116502,-2.944354 z"
       id="path39766" />
    <path
       style="fill:#ffffff"
       id="path57379"
       d="m 96.819921,51.258104 c -0.476067,-0.228342 -0.952068,-0.455375 -1.454469,-0.619801 -0.579157,-0.159845 -1.179318,-0.225979 -1.775941,-0.28275 -0.250276,-0.01488 -0.505413,-0.0084 -0.744253,0.07338 -0.952027,0.333123 -1.510964,0.874657 -2.248861,1.391553 -0.379466,0.268332 0.201971,0.542988 0.414956,0.650129 0.435258,0.209263 0.912411,0.29716 1.371153,0.438924 0.394953,0.152722 0.806069,0.139489 1.219598,0.111704 0.203328,-0.01785 0.4071,-0.02918 0.611052,-0.03638 0,0 1.621038,-1.188899 1.621038,-1.188899 v 0 c -0.207036,0.01119 -0.41426,0.0192 -0.621036,0.03487 -0.398162,0.0374 -0.806453,0.09737 -1.193114,-0.03758 -0.448033,-0.138605 -0.906362,-0.242925 -1.341232,-0.42004 -0.128889,-0.06363 -0.249424,-0.140722 -0.375647,-0.206421 -0.0073,-0.0038 0.0066,0.02218 0.01462,0.02006 0.0582,-0.01539 0.08694,-0.0959 0.147617,-0.104027 0.644407,-0.463938 1.696163,-1.408177 -1.212545,0.591084 0.234202,-0.09207 0.460511,-0.173447 0.720178,-0.163283 0.588392,0.03716 1.181294,0.08759 1.750989,0.247712 0.493858,0.138695 0.963489,0.345316 1.410869,0.596058 0,0 1.685025,-1.096286 1.685025,-1.096286 z" />
    <path
       style="fill:#ffffff"
       id="path57550"
       d="m 73.827905,54.632105 c 0.0114,0.281784 0.0029,0.563844 0.0019,0.845736 -0.01426,0.307857 0.04973,0.537917 0.201018,0.803859 0.16258,0.233872 0.336345,0.465313 0.538099,0.667253 0.253689,0.237574 0.492361,0.490817 0.749745,0.724348 0.181176,0.173605 0.361585,0.350282 0.569826,0.491408 0.0923,0.06221 0.04628,0.03194 0.138008,0.09087 0,0 1.195775,-0.773171 1.195775,-0.773171 v 0 c -0.09182,-0.05185 -0.04492,-0.02324 -0.140186,-0.08665 -0.212875,-0.122007 -0.388104,-0.299423 -0.568698,-0.463377 -0.256905,-0.228564 -0.497473,-0.475205 -0.73934,-0.719459 -0.18735,-0.199034 -0.371732,-0.405033 -0.523343,-0.632619 -0.125774,-0.234177 -0.176899,-0.476467 -0.161654,-0.743517 9.77e-4,-0.283579 -0.0054,-0.567366 0.0079,-0.850756 0,0 -1.269109,0.646078 -1.269109,0.646078 z" />
  </g>
</svg>
